<?xml version="1.0" encoding="utf-8"?>

<svg version="1.1" id="Layer_1" xmlns="http://www.w3.org/2000/svg" xmlns:xlink="http://www.w3.org/1999/xlink" x="0px" y="0px"
	 width="226.77px" height="155.91px" viewBox="0 0 226.77 155.91" enable-background="new 0 0 226.77 155.91" xml:space="preserve">
<g>
	<path d="M174.863,69.258c0.663,0.185,1.333,0.275,1.987,0.275c3.191,0,6.123-2.105,7.031-5.328
		c1.471-5.218,0.183-10.28-3.633-14.251c-5.213-5.425-15.247-8.419-27.398-9.705l17.165-22.87c2.424-3.228,1.771-7.81-1.46-10.231
		c-3.232-2.424-7.812-1.769-10.23,1.459l-23.183,30.892c-18.331,0.188-38.303,2.936-53.241,6.517
		c-20.685,4.953-24.885,1.518-24.951,1.518c0,0,0,0,0,0.002c-0.122-0.404,0.117-1.615,0.47-2.37c1.776-3.579,0.351-7.93-3.215-9.754
		c-3.591-1.844-7.996-0.419-9.837,3.174c-0.526,1.028-4.962,10.251,1.028,17.869c6.02,7.657,18.704,8.853,39.908,3.774
		c13.586-3.255,26.792-5.023,38.59-5.74l-20.658,27.528H50.152c-4.037,0-7.309,3.272-7.309,7.309s3.272,7.308,7.309,7.308h42.115
		l-10.97,14.617H50.152c-4.037,0-7.309,3.271-7.309,7.309c0,4.036,3.272,7.308,7.309,7.308h20.178l-9.506,12.665
		c-2.424,3.229-1.771,7.811,1.459,10.232c1.316,0.988,2.853,1.464,4.38,1.464c2.222,0,4.414-1.009,5.852-2.921l16.088-21.44h88.226
		c4.037,0,7.309-3.271,7.309-7.308c0-4.037-3.271-7.309-7.309-7.309H99.573l10.97-14.617h66.286c4.037,0,7.309-3.271,7.309-7.308
		s-3.271-7.309-7.309-7.309h-55.318l20.862-27.803c15.167,0.543,25.594,3.041,27.462,5.983c-0.008,0.005-0.015,0.017-0.021,0.042
		C168.72,64.12,170.979,68.159,174.863,69.258z"/>
</g>
</svg>
